<?xml version="1.0" encoding="utf-8"?>
<!-- Generator: Adobe Illustrator 23.0.3, SVG Export Plug-In . SVG Version: 6.00 Build 0)  -->
<svg version="1.1" id="Layer_1" xmlns="http://www.w3.org/2000/svg" xmlns:xlink="http://www.w3.org/1999/xlink" x="0px" y="0px"
	 viewBox="0 0 587 543" style="enable-background:new 0 0 587 543;" xml:space="preserve">
<style type="text/css">
	.st0{fill:#3D3D3D;}
	.st1{fill:#FFFFFF;}
</style>
<g>
	<path class="st0" d="M15.1,469.7c38-15.5,58.5-32.5,65.5-81l33-239.5h77.5l-33,236.5c-12,86.5-59.5,117-123.5,140L15.1,469.7z
		 M119.6,59.2c0-28.5,22.5-49.5,51.5-49.5c25,0,41.5,16.5,41.5,39.5c0,28.5-22.5,50-51.5,50C136.1,99.2,119.6,82.2,119.6,59.2z"/>
</g>
<g>
	<path class="st1" d="M484.9,425.9h-83.6l-4.4-211.6l-66,211.6h-81.6l-6-277.2h63.2l-4.4,227.6l70-227.6h68l3.6,227.6l63.6-227.6h62
		L484.9,425.9z"/>
</g>
</svg>
